<svg xmlns="http://www.w3.org/2000/svg" viewBox="0 0 410 404"><g><path fill="#41D1FF" d="M399 64.5c-4.7-17.7-18.6-31.6-36.3-36.3C340.2 24 205 24 205 24s-135.2 0-157.7 4.2C29.6 28.9 15.7 42.8 11 60.5 6.8 83 6.8 122 6.8 122s0 39 4.2 61.5c4.7 17.7 18.6 31.6 36.3 36.3C69.8 200 205 200 205 200s135.2 0 157.7-4.2c17.7-4.7 31.6-18.6 36.3-36.3 4.2-22.5 4.2-61.5 4.2-61.5s0-39-4.2-61.5z"/><path fill="#FFFB00" d="M205 200c-39.8 0-72-32.2-72-72s32.2-72 72-72 72 32.2 72 72-32.2 72-72 72z"/><path fill="#FF7B00" d="M205 200c-39.8 0-72-32.2-72-72s32.2-72 72-72 72 32.2 72 72-32.2 72-72 72z"/></g></svg>